<?xml version="1.0" encoding="utf-8"?>
<!-- Generator: Adobe Illustrator 19.2.0, SVG Export Plug-In . SVG Version: 6.00 Build 0)  -->
<svg version="1.1" id="Layer_1" xmlns="http://www.w3.org/2000/svg" xmlns:xlink="http://www.w3.org/1999/xlink" x="0px" y="0px"
	 viewBox="0 0 900 604" style="enable-background:new 0 0 900 604;" xml:space="preserve">
<style type="text/css">
	.st0{fill:#414042;}
	.st1{fill:#D1D3D4;}
	.st2{fill:#8DC63F;}
	.st3{fill:none;}
	.st4{font-family:'TrebuchetMS-Bold';}
	.st5{font-size:18.7535px;}
	.st6{font-size:15.4694px;}
	.st7{fill:#FFFFFF;}
	.st8{font-family:'TrebuchetMS';}
	.st9{fill:none;stroke:#8DC63F;stroke-miterlimit:10;}
</style>
<rect x="0.1" y="255.2" class="st0" width="899.9" height="63.8"/>
<rect x="0.7" class="st1" width="899.1" height="57.6"/>
<rect x="0.7" y="543.2" class="st1" width="899.1" height="60.4"/>
<rect x="318.8" y="67.1" class="st2" width="256.1" height="63.6"/>
<rect x="318.8" y="462.4" class="st2" width="256.1" height="63.6"/>
<rect x="1.3" y="9.9" class="st3" width="896.4" height="80.2"/>
<text transform="matrix(1 0 0 1 332.9023 23.8848)"><tspan x="0" y="0" class="st4 st5">PUBLIC HEALTH RESEARCH </tspan><tspan x="-236.1" y="22.9" class="st4 st5">HEALTH PROMOTION, EPIDEMIOLOGY, OCCUPATIONAL HEALTH, GLOBAL HEALTH </tspan></text>
<g>
	<rect x="2.5" y="551.6" class="st3" width="892.9" height="46.9"/>
	<text transform="matrix(1 0 0 1 318.0698 565.6523)"><tspan x="0" y="0" class="st4 st5">PUBLIC HEALTH GOVERNANCE </tspan><tspan x="-151.3" y="22.9" class="st4 st5">FINANCING, INCENTIVES, MANAGEMENT, ECONOMIC EVALUATION</tspan></text>
</g>
<rect x="74.4" y="83.5" class="st3" width="749.4" height="55"/>
<text transform="matrix(1 0 0 1 348.3105 95.0571)"><tspan x="0" y="0" class="st4 st6">A LIFECOURSE PERSPECTIVE </tspan><tspan x="1.6" y="20.6" class="st4 st6">ON HEALTH DETERMINANTS</tspan></text>
<rect x="74.4" y="477.9" class="st3" width="749.4" height="55"/>
<text transform="matrix(1 0 0 1 371.5371 489.4434)"><tspan x="0" y="0" class="st4 st6">A FOCUS ON SPECIFIC </tspan><tspan x="-15.1" y="20.6" class="st4 st6">GROUPS AND CONDITIONS</tspan></text>
<rect x="74.4" y="273.3" class="st3" width="749.4" height="55"/>
<text transform="matrix(1 0 0 1 80.8413 284.7495)"><tspan x="0" y="0" class="st7 st8 st6">FROM EVALUATION TO ACTION: EPIDERMIOLOGICAL STUDIES, DESIGN AND EVALUATION OF INTERVENTIONS </tspan><tspan x="160.1" y="20.6" class="st7 st8 st6">AND PROGRAMS, KNOWLEDGE TRANSFER AND COOPERATION</tspan></text>
<rect x="2.5" y="165.1" class="st3" width="185.6" height="55"/>
<text transform="matrix(1 0 0 1 38.043 176.4639)"><tspan x="0" y="0" class="st8 st6">SOCIOECONOMIC</tspan><tspan x="15.1" y="20.6" class="st8 st6">CONDITIONS</tspan></text>
<rect x="2.5" y="381.6" class="st3" width="185.6" height="55"/>
<text transform="matrix(1 0 0 1 31.0107 393.0352)" class="st8 st6">CHRONIC DISEASES</text>
<rect x="653.6" y="381.6" class="st3" width="247.5" height="55"/>
<text transform="matrix(1 0 0 1 703.6338 393.0352)"><tspan x="0" y="0" class="st8 st6">INFECTIOUS DISEASES</tspan><tspan x="42.3" y="20.6" class="st8 st6">(HIV, TB)</tspan></text>
<rect x="320.2" y="381.6" class="st3" width="252.7" height="62.7"/>
<text transform="matrix(1 0 0 1 372.1279 393.0352)"><tspan x="0" y="0" class="st8 st6">VULNERABLE GROUPS</tspan><tspan x="-40.6" y="20.6" class="st8 st6">(CHILDREN, ELDERLY, MIGRANTS)</tspan></text>
<rect x="211.9" y="165.1" class="st3" width="238.9" height="72.2"/>
<text transform="matrix(1 0 0 1 282.3467 176.4639)"><tspan x="0" y="0" class="st8 st6">OCUPATIONAL </tspan><tspan x="-25.5" y="20.6" class="st8 st6">AND ENVIRONMENTAL </tspan><tspan x="17.6" y="41.3" class="st8 st6">HAZARDS</tspan></text>
<rect x="452" y="165.1" class="st3" width="238.9" height="72.2"/>
<text transform="matrix(1 0 0 1 539.8301 176.4639)"><tspan x="0" y="0" class="st8 st6">HEALTHY </tspan><tspan x="-7" y="20.6" class="st8 st6">LIFESTYLES</tspan></text>
<rect x="708.1" y="165.1" class="st3" width="184.5" height="72.2"/>
<text transform="matrix(1 0 0 1 741.1152 176.4639)"><tspan x="0" y="0" class="st8 st6">HEALTH SYSTEMS </tspan><tspan x="-13.2" y="20.6" class="st8 st6">AND ORGANIZATIONS</tspan></text>
<polygon class="st2" points="447.7,134.2 473.5,134.2 460.6,147.3 447.7,160.4 434.8,147.3 421.9,134.2 "/>
<polygon class="st0" points="447.7,321.9 473.5,321.9 460.6,335 447.7,348.1 434.8,335 421.9,321.9 "/>
<polygon class="st0" points="447.7,252.4 421.9,252.4 434.8,239.3 447.7,226.2 460.6,239.3 473.5,252.4 "/>
<polygon class="st2" points="444.3,459 418.5,459 431.4,445.9 444.3,432.8 457.2,445.9 470.1,459 "/>
<rect x="2.5" y="152.1" class="st9" width="185.4" height="72.2"/>
<rect x="2.5" y="355" class="st9" width="185.4" height="72.2"/>
<rect x="324" y="355" class="st9" width="244.8" height="72.2"/>
<rect x="654" y="355" class="st9" width="244.8" height="72.2"/>
<rect x="238" y="152.1" class="st9" width="185.4" height="72.2"/>
<rect x="473.5" y="152.1" class="st9" width="185.4" height="72.2"/>
<rect x="707.3" y="152.1" class="st9" width="185.4" height="72.2"/>
<line class="st9" x1="188.2" y1="188.2" x2="239.7" y2="188.2"/>
<line class="st9" x1="188.2" y1="392.8" x2="325.7" y2="392.8"/>
<line class="st9" x1="569.8" y1="392.8" x2="654" y2="392.8"/>
<line class="st9" x1="423.7" y1="188.2" x2="475.2" y2="188.2"/>
<line class="st9" x1="657.4" y1="188.2" x2="709" y2="188.2"/>
</svg>
